<?xml version="1.0" standalone="no"?>
<!DOCTYPE svg PUBLIC "-//W3C//DTD SVG 20010904//EN"
 "http://www.w3.org/TR/2001/REC-SVG-20010904/DTD/svg10.dtd">
<svg version="1.0" xmlns="http://www.w3.org/2000/svg"
 width="626.000000pt" height="391.000000pt" viewBox="0 0 626.000000 391.000000"
 preserveAspectRatio="xMidYMid meet">

<g transform="translate(0.000000,391.000000) scale(0.100000,-0.100000)"
fill="#000000" stroke="none">
<path d="M2504 3391 c-121 -55 -246 -327 -297 -646 -9 -57 -30 -126 -55 -185
-58 -135 -172 -374 -176 -369 -2 2 6 87 19 189 44 344 56 610 34 737 -27 154
-117 185 -307 105 l-68 -29 -44 39 c-114 102 -270 75 -270 -47 0 -74 56 -105
186 -105 84 0 81 4 91 -136 21 -321 -157 -894 -388 -1249 -77 -118 -219 -257
-303 -296 -52 -24 -75 -30 -103 -26 -148 24 -229 256 -163 463 36 112 160 285
205 286 11 0 41 -3 66 -7 34 -5 54 -3 77 9 86 44 -17 116 -166 116 -309 -1
-564 -312 -488 -597 35 -133 123 -241 243 -300 67 -33 85 -38 167 -41 114 -5
185 16 286 83 132 88 237 234 361 505 139 303 222 552 264 787 20 117 29 303
17 382 l-9 64 71 32 c39 18 72 32 74 30 1 -1 -18 -96 -42 -212 -86 -400 -112
-620 -103 -887 3 -94 10 -183 16 -198 16 -42 56 -63 120 -62 58 0 109 18 122
44 4 8 11 38 16 65 6 35 42 110 113 238 58 102 108 187 111 187 4 0 12 -30 18
-67 27 -158 100 -415 155 -544 7 -15 -13 -17 -196 -22 -222 -6 -302 -18 -427
-68 -155 -62 -263 -155 -323 -279 -28 -57 -33 -77 -36 -167 -5 -123 16 -206
76 -298 266 -411 1137 -533 1948 -274 232 74 473 185 863 397 468 253 655 322
881 322 58 0 125 -5 149 -11 274 -63 378 -351 193 -532 -82 -80 -207 -127
-283 -107 -51 14 -124 80 -139 126 -14 43 -6 93 20 127 19 23 19 25 1 41 -40
36 -148 8 -206 -53 -26 -28 -30 -40 -30 -89 0 -71 33 -124 109 -177 81 -56
162 -78 286 -78 127 -1 203 17 320 75 98 48 173 117 210 193 36 76 34 180 -7
267 -146 312 -611 382 -1140 173 -65 -26 -233 -106 -373 -178 -550 -281 -660
-335 -810 -395 -335 -132 -597 -185 -915 -185 -192 0 -315 17 -460 65 -207 67
-380 195 -466 343 -79 136 -91 300 -31 429 39 82 121 167 207 213 125 66 320
99 498 84 82 -7 103 -12 137 -36 40 -28 93 -35 141 -20 25 8 24 21 -14 205
-76 367 -63 827 40 1399 25 139 25 145 7 158 -23 17 -31 16 -80 -6z m-970
-193 l41 -42 -33 -9 c-49 -15 -82 3 -82 46 0 61 18 62 74 5z"/>
<path d="M4182 2920 c-117 -55 -237 -203 -321 -395 -42 -96 -91 -252 -91 -291
0 -12 -5 -26 -10 -29 -7 -4 -8 45 -4 148 4 85 4 166 0 180 -9 36 -38 42 -89
19 -95 -42 -151 -181 -186 -460 -16 -132 -19 -139 -58 -197 -45 -67 -114 -135
-163 -160 -18 -9 -56 -19 -85 -22 -68 -7 -145 26 -209 90 -41 42 -86 112 -86
137 0 6 24 10 58 10 182 0 396 131 476 291 63 125 58 225 -16 305 -113 123
-328 146 -513 55 -166 -82 -272 -247 -291 -453 -25 -290 180 -503 481 -501
137 1 262 50 370 145 l47 42 21 -28 c27 -37 74 -56 137 -56 51 0 88 12 102 34
4 6 8 32 8 58 0 32 26 123 84 291 129 375 177 484 266 596 40 51 124 120 146
121 25 0 -11 -114 -121 -390 -154 -386 -195 -535 -195 -709 0 -155 51 -282
140 -347 104 -76 217 -68 338 24 45 34 124 156 157 242 22 57 30 70 44 64 66
-28 101 -35 143 -31 86 10 162 63 259 179 l48 58 30 -44 c79 -114 182 -169
322 -170 79 -1 90 2 161 37 140 69 278 253 323 432 26 101 13 197 -33 248 -41
47 -145 71 -207 47 -38 -15 -40 -35 -6 -77 121 -152 99 -347 -59 -517 -34 -36
-81 -74 -105 -86 -43 -21 -45 -21 -75 -3 -17 10 -41 39 -55 67 -45 90 -34 251
36 528 36 144 36 156 3 168 -147 56 -311 -126 -354 -394 -13 -84 -57 -182
-113 -254 -46 -60 -138 -128 -161 -119 -22 9 -29 99 -16 202 6 50 31 173 55
275 62 258 71 320 54 356 -29 60 -144 34 -234 -53 -95 -93 -186 -404 -172
-591 4 -56 14 -91 38 -140 l32 -66 -22 -75 c-41 -139 -120 -245 -221 -296
l-52 -26 -25 23 c-46 41 -67 104 -66 193 2 136 36 251 192 647 56 141 113 301
128 355 32 118 36 222 9 271 -40 76 -180 96 -294 42z m-972 -382 c63 -32 82
-73 77 -163 -5 -90 -40 -166 -114 -245 -74 -81 -143 -114 -237 -114 l-71 -1
-3 76 c-7 193 84 396 203 450 53 25 92 24 145 -3z"/>
</g>
</svg>
